<svg xmlns="http://www.w3.org/2000/svg" width="14.198" height="13.748" viewBox="0 0 14.198 13.748"><path d="M22.169,39.248H12.028A2.072,2.072,0,0,1,10,37.135V34.494a.519.519,0,0,1,.507-.529h1.014a.518.518,0,0,1,.507.529v1.585a1.035,1.035,0,0,0,1.014,1.056h8.113a1.036,1.036,0,0,0,1.014-1.056V34.494a.519.519,0,0,1,.507-.529H23.69a.518.518,0,0,1,.507.529v2.641a2.072,2.072,0,0,1-2.028,2.114Zm-.949-7.61a.51.51,0,0,1-.743,0l-2.364-2.464v5.32a.519.519,0,0,1-.507.529H16.592a.518.518,0,0,1-.507-.529v-5.32L13.72,31.638a.51.51,0,0,1-.743,0l-.743-.774a.562.562,0,0,1,0-.774l4.187-4.365a1.324,1.324,0,0,1,.672-.226,1.378,1.378,0,0,1,.684.226l4.188,4.364a.562.562,0,0,1,0,.774l-.745.775Z" transform="translate(-10 -25.5)" fill="#1a84ee"/></svg>